<svg width="50" height="49" viewBox="0 0 50 49" fill="none" xmlns="http://www.w3.org/2000/svg">
<ellipse cx="25" cy="24.5" rx="25" ry="24.5" fill="url(#paint0_linear_37_6371)"/>
<ellipse cx="25" cy="24.5" rx="25" ry="24.5" fill="url(#paint1_linear_37_6371)" fill-opacity="0.2"/>
<mask id="mask0_37_6371" style="mask-type:luminance" maskUnits="userSpaceOnUse" x="12" y="5" width="27" height="38">
<path d="M38.4056 5.87988H12.1797V42.7132H38.4056V5.87988Z" fill="white"/>
</mask>
<g mask="url(#mask0_37_6371)">
<path d="M35.3299 27.812C36.8604 27.812 38.1011 26.5295 38.1011 24.9475C38.1011 23.3655 36.8604 22.083 35.3299 22.083C33.7993 22.083 32.5586 23.3655 32.5586 24.9475C32.5586 26.5295 33.7993 27.812 35.3299 27.812Z" fill="#F9CDB7"/>
<path d="M34.5 27.4918C34.9127 27.6148 35.3474 27.637 35.7698 27.5565C36.1921 27.4761 36.5907 27.2953 36.9339 27.0284C37.277 26.7615 37.5556 26.4157 37.7473 26.0185C37.9391 25.6213 38.0389 25.1834 38.0389 24.7394C38.0389 24.2955 37.9391 23.8577 37.7473 23.4605C37.5556 23.0632 37.277 22.7175 36.9339 22.4506C36.5907 22.1836 36.1921 22.0028 35.7698 21.9224C35.3474 21.842 34.9127 21.8641 34.5 21.9871C35.0772 22.1596 35.5845 22.5213 35.9456 23.0178C36.3067 23.5142 36.5019 24.1184 36.5019 24.7394C36.5019 25.3605 36.3067 25.9648 35.9456 26.4612C35.5845 26.9576 35.0772 27.3193 34.5 27.4918Z" fill="#E2A78D"/>
<path d="M15.2478 27.812C16.7784 27.812 18.0191 26.5295 18.0191 24.9475C18.0191 23.3655 16.7784 22.083 15.2478 22.083C13.7173 22.083 12.4766 23.3655 12.4766 24.9475C12.4766 26.5295 13.7173 27.812 15.2478 27.812Z" fill="#F9CDB7"/>
<path d="M15.8866 27.6305C15.4739 27.7535 15.0392 27.7757 14.6168 27.6952C14.1944 27.6148 13.7959 27.4339 13.4527 27.1671C13.1095 26.9001 12.831 26.5544 12.6393 26.1572C12.4475 25.7599 12.3477 25.3221 12.3477 24.8781C12.3477 24.4342 12.4475 23.9964 12.6393 23.5991C12.831 23.2019 13.1095 22.8562 13.4527 22.5892C13.7959 22.3223 14.1944 22.1415 14.6168 22.0611C15.0392 21.9806 15.4739 22.0028 15.8866 22.1257C15.3094 22.2983 14.802 22.66 14.441 23.1565C14.0799 23.6528 13.8847 24.2571 13.8847 24.8781C13.8847 25.4992 14.0799 26.1035 14.441 26.5998C14.802 27.0963 15.3094 27.458 15.8866 27.6305Z" fill="#E2A78D"/>
<path d="M15.2489 28.0245C14.6412 28.0247 14.0471 27.8385 13.5418 27.4896C13.0364 27.1408 12.6425 26.6448 12.4099 26.0645C12.1772 25.4842 12.1163 24.8456 12.2347 24.2295C12.3532 23.6134 12.6458 23.0475 13.0755 22.6033C13.5051 22.1591 14.0526 21.8565 14.6486 21.7339C15.2446 21.6114 15.8624 21.6742 16.4239 21.9145C16.9854 22.1548 17.4653 22.562 17.8029 23.0842C18.1405 23.6065 18.3208 24.2205 18.3208 24.8487C18.319 25.6903 17.9948 26.4969 17.4191 27.092C16.8435 27.6872 16.0632 28.0225 15.2489 28.0245ZM15.2489 22.2963C14.7604 22.2961 14.2827 22.4457 13.8764 22.7262C13.4701 23.0067 13.1534 23.4055 12.9664 23.872C12.7793 24.3386 12.7304 24.8519 12.8257 25.3473C12.9209 25.8426 13.1562 26.2976 13.5017 26.6547C13.8472 27.0118 14.2874 27.255 14.7666 27.3534C15.2458 27.452 15.7425 27.4013 16.1938 27.208C16.6452 27.0147 17.0309 26.6874 17.3023 26.2674C17.5737 25.8474 17.7184 25.3537 17.7183 24.8487C17.7174 24.172 17.457 23.5234 16.9941 23.0448C16.5312 22.5664 15.9036 22.2972 15.2489 22.2963Z" fill="#213346"/>
<path d="M13.6018 25.3214C13.5922 25.3221 13.5826 25.3221 13.573 25.3214C13.5114 25.3134 13.4553 25.2806 13.4171 25.23C13.3788 25.1794 13.3615 25.1153 13.3689 25.0515C13.4873 24.0545 13.899 23.5605 14.223 23.3218C14.4356 23.1588 14.6876 23.0596 14.9513 23.0353C15.0134 23.0328 15.074 23.0558 15.1197 23.0994C15.1654 23.143 15.1925 23.2036 15.1949 23.2678C15.1974 23.332 15.1751 23.3947 15.1329 23.4419C15.0908 23.4891 15.0322 23.5171 14.97 23.5197C14.9265 23.5197 14.0141 23.5965 13.8321 25.1111C13.8247 25.1689 13.7973 25.222 13.755 25.2607C13.7126 25.2993 13.6583 25.3209 13.6018 25.3214Z" fill="#213346"/>
<path d="M14.4291 25.8203C14.4106 25.8203 14.3922 25.8182 14.3742 25.8141C14.3442 25.8067 14.316 25.7933 14.2911 25.7746C14.2662 25.7559 14.245 25.7323 14.2289 25.7052C14.2128 25.6781 14.2021 25.648 14.1972 25.6166C14.1924 25.5851 14.1936 25.553 14.2008 25.5221C14.269 25.2611 14.2917 24.9895 14.2677 24.7202C14.2469 24.4781 14.1423 24.2519 13.9732 24.083C13.9494 24.0621 13.9299 24.0365 13.9158 24.0077C13.9017 23.9789 13.8934 23.9475 13.8912 23.9153C13.889 23.8831 13.8931 23.8508 13.9032 23.8203C13.9132 23.7897 13.9291 23.7616 13.9498 23.7375C13.9706 23.7134 13.9957 23.6938 14.0239 23.6799C14.0521 23.666 14.0826 23.6581 14.1138 23.6565C14.145 23.6549 14.1761 23.6599 14.2054 23.671C14.2347 23.6821 14.2616 23.6991 14.2845 23.7211C14.5389 23.9679 14.698 24.3017 14.7323 24.6607C14.7634 24.9873 14.7371 25.3172 14.6546 25.6342C14.6425 25.6868 14.6137 25.7337 14.5729 25.7674C14.532 25.8012 14.4814 25.8198 14.4291 25.8203Z" fill="#213346"/>
<path d="M35.331 28.0245C34.7232 28.0247 34.1291 27.8385 33.6238 27.4896C33.1184 27.1408 32.7245 26.6448 32.4919 26.0645C32.2592 25.4842 32.1983 24.8456 32.3168 24.2295C32.4353 23.6134 32.7278 23.0475 33.1575 22.6033C33.5871 22.1591 34.1346 21.8565 34.7307 21.7339C35.3267 21.6114 35.9445 21.6742 36.5059 21.9145C37.0674 22.1548 37.5473 22.562 37.8849 23.0842C38.2226 23.6065 38.4028 24.2205 38.4028 24.8487C38.401 25.6903 38.0769 26.4969 37.5012 27.092C36.9255 27.6872 36.1452 28.0225 35.331 28.0245ZM35.331 22.2963C34.8424 22.2961 34.3647 22.4457 33.9585 22.7262C33.5521 23.0067 33.2354 23.4055 33.0484 23.872C32.8614 24.3386 32.8124 24.8519 32.9077 25.3473C33.003 25.8426 33.2383 26.2976 33.5837 26.6547C33.9292 27.0118 34.3694 27.255 34.8486 27.3534C35.3277 27.452 35.8245 27.4013 36.2759 27.208C36.7272 27.0147 37.113 26.6874 37.3843 26.2674C37.6557 25.8474 37.8005 25.3537 37.8003 24.8487C37.7995 24.172 37.539 23.5234 37.0761 23.0448C36.6132 22.5664 35.9856 22.2972 35.331 22.2963Z" fill="#213346"/>
<path d="M36.9755 25.3215C36.9184 25.3214 36.8632 25.2998 36.8205 25.2607C36.7777 25.2216 36.7502 25.1677 36.7432 25.1091C36.5631 23.591 35.6461 23.5177 35.6052 23.5177C35.5435 23.5141 35.4855 23.4856 35.4439 23.4382C35.4024 23.3908 35.3805 23.3284 35.383 23.2645C35.3841 23.2329 35.3912 23.2019 35.404 23.1733C35.4167 23.1446 35.4348 23.1188 35.4572 23.0973C35.4795 23.0759 35.5058 23.0591 35.5344 23.0482C35.5631 23.0372 35.5935 23.0322 35.624 23.0334C35.8877 23.0577 36.1397 23.1568 36.3523 23.3198C36.6769 23.5585 37.0886 24.0525 37.2064 25.0496C37.2147 25.1128 37.1984 25.1769 37.1611 25.2278C37.1239 25.2787 37.0687 25.3124 37.0076 25.3215C36.9969 25.3224 36.9862 25.3224 36.9755 25.3215Z" fill="#213346"/>
<path d="M36.1506 25.8208C36.0979 25.8208 36.0468 25.8025 36.0055 25.7687C35.9641 25.7349 35.9351 25.6877 35.923 25.6347C35.84 25.3175 35.8135 24.9874 35.8447 24.6605C35.8794 24.3019 36.0384 23.9684 36.2925 23.7216C36.3155 23.7004 36.3423 23.6841 36.3714 23.6736C36.4004 23.6632 36.4312 23.6587 36.4619 23.6605C36.4927 23.6624 36.5228 23.6704 36.5505 23.6843C36.5782 23.6982 36.6031 23.7175 36.6235 23.7413C36.644 23.765 36.6597 23.7928 36.6699 23.8228C36.68 23.8528 36.6843 23.8847 36.6826 23.9164C36.6808 23.9482 36.673 23.9793 36.6595 24.008C36.6462 24.0366 36.6274 24.0623 36.6045 24.0834C36.4351 24.2521 36.3305 24.4784 36.3099 24.7207C36.2853 24.99 36.308 25.2616 36.3769 25.5226C36.391 25.5851 36.3806 25.6509 36.348 25.7056C36.3154 25.7603 36.2632 25.7994 36.2028 25.8146C36.1857 25.8185 36.1682 25.8206 36.1506 25.8208Z" fill="#213346"/>
<path d="M25.3324 10.0996H25.5192C28.1129 10.0996 30.6004 11.1646 32.4345 13.0604C34.2685 14.9561 35.2989 17.5273 35.2989 20.2083V26.7814C35.2995 28.1218 35.0447 29.4491 34.549 30.6877C34.0532 31.9263 33.3263 33.0518 32.4097 33.9999C31.4931 34.9481 30.4047 35.7003 29.2068 36.2136C28.0089 36.727 26.725 36.9914 25.4282 36.9917C22.8096 36.9917 20.2982 35.9165 18.4466 34.0026C16.5949 32.0887 15.5547 29.4928 15.5547 26.7862V20.2131C15.5541 18.8854 15.8065 17.5706 16.2976 16.3437C16.7887 15.1169 17.5088 14.002 18.4167 13.0628C19.3247 12.1237 20.4028 11.3786 21.5894 10.8701C22.776 10.3617 24.0479 10.0999 25.3324 10.0996Z" fill="#F9CDB7"/>
<path d="M26.6809 36.7865C26.2308 36.8512 25.7771 36.8838 25.3227 36.8841C19.8913 36.8841 15.4492 32.2919 15.4492 26.6785V19.9671C15.4492 14.4803 19.7915 9.99122 25.0998 9.99122H25.5449C25.9253 9.99075 26.3052 10.0139 26.6829 10.0604C22.3673 10.5918 18.6295 14.6553 17.9434 19.1845C17.732 20.6292 17.434 22.0588 17.0511 23.4653L16.1574 26.6785C16.1574 31.8159 21.886 36.0974 26.6809 36.7865Z" fill="#E2A78D"/>
<path d="M25.3231 37.3035C22.627 37.2956 20.0434 36.1851 18.1369 34.2145C16.2304 32.2439 15.156 29.5734 15.1484 26.7866V20.21C15.1555 17.4489 16.2198 14.8028 18.1087 12.8503C19.9975 10.8978 22.5574 9.79753 25.2287 9.79004H25.4155C28.0871 9.79717 30.6473 10.8973 32.5364 12.8498C34.4256 14.8024 35.49 17.4487 35.4971 20.21V26.7866C35.4892 29.5733 34.4147 32.2436 32.5083 34.2141C30.6018 36.1846 28.0185 37.2953 25.3225 37.3035H25.3231ZM25.2287 10.4128C22.7171 10.4201 20.3103 11.4546 18.5342 13.2904C16.7582 15.1262 15.7573 17.6139 15.7502 20.21V26.7866C15.7578 29.4083 16.7688 31.9203 18.5623 33.7741C20.3557 35.628 22.7861 36.6729 25.3225 36.6808C27.8588 36.6729 30.2892 35.628 32.0827 33.7741C33.8762 31.9203 34.8871 29.4083 34.8947 26.7866V20.21C34.8876 17.6139 33.8867 15.1262 32.1107 13.2904C30.3346 11.4546 27.9278 10.4201 25.4162 10.4128H25.2287Z" fill="#213346"/>
<path d="M34.2956 25.0791V25.0911C34.2592 25.0923 34.2738 25.0845 34.2956 25.0791Z" fill="#BFE1EE"/>
<path d="M24.8707 42.1497C31.5152 42.1497 36.9016 40.5123 36.9016 38.4924C36.9016 36.4724 31.5152 34.835 24.8707 34.835C18.2263 34.835 12.8398 36.4724 12.8398 38.4924C12.8398 40.5123 18.2263 42.1497 24.8707 42.1497Z" fill="#DFE7EA"/>
<path d="M34.9842 28.4046C36.4 31.0747 35.9495 33.6776 35.999 36.1615L35.2326 35.2849C34.9451 36.8339 34.2489 38.2705 33.2211 39.4363C32.9963 39.0113 32.6769 38.6477 32.2893 38.3756C32.0061 39.6832 31.3347 40.8666 30.3688 41.7604C30.5051 41.4197 30.5692 41.0529 30.557 40.6845C30.5448 40.3161 30.4564 39.9547 30.2979 39.6245C30.128 40.1702 29.8487 40.6727 29.4781 41.0992C29.1075 41.5257 28.6539 41.8665 28.1471 42.0994C28.3066 41.8678 28.4064 41.598 28.4372 41.3155C28.468 41.033 28.4287 40.747 28.3232 40.4845C27.5427 41.8538 25.2989 41.8953 24.4722 40.5537C24.4146 40.8243 24.4568 41.1799 24.7239 41.2027C23.5993 41.3819 22.5698 40.8921 21.796 40.03C21.8434 40.5189 22.0674 40.9715 22.4232 41.2975C21.8223 41.2579 21.2421 41.056 20.7406 40.7117C20.2391 40.3675 19.8339 39.893 19.5656 39.336C18.1143 39.4294 16.6651 38.4019 16.2273 36.969C16.2576 37.0897 16.2569 37.2165 16.2252 37.3369C16.1935 37.4573 16.1319 37.5671 16.0466 37.6554C13.5398 36.3394 13.6736 30.4416 15.3156 28.4953C15.3156 28.4953 18.7717 29.0682 20.8716 30.7142C22.2103 31.7645 24.5184 29.3781 26.469 29.3698C28.1029 29.3622 28.9765 31.5043 30.0234 30.4879C32.7927 27.7999 34.9601 28.359 34.9842 28.4046Z" fill="#E99A4F"/>
<path d="M36.0973 35.8536L35.3308 34.9763C35.0437 36.5247 34.3488 37.9612 33.3227 39.1277C33.0977 38.7027 32.7783 38.3389 32.3909 38.0663C32.1079 39.374 31.4364 40.5575 30.4704 41.4511C30.6065 41.1104 30.6706 40.7436 30.6584 40.3753C30.6461 40.0068 30.5578 39.6455 30.3995 39.3152C30.2292 39.8611 29.9494 40.3636 29.5781 40.7899C29.2069 41.2161 28.7528 41.5565 28.2454 41.7888C28.4048 41.5572 28.5045 41.2875 28.5353 41.0052C28.5661 40.7228 28.5269 40.437 28.4214 40.1745C27.6409 41.5438 25.3971 41.5853 24.5704 40.2437C24.5122 40.515 24.5778 41.5106 24.8456 41.5341C23.721 41.7126 22.668 40.5828 21.8942 39.72C21.9391 40.2043 22.0556 41.0754 22.4083 41.3964C21.2101 41.3335 20.1846 40.1427 19.6638 39.026C18.2126 39.1194 16.7634 38.0919 16.3256 36.659C16.3559 36.7799 16.3551 36.9068 16.3234 37.0273C16.2917 37.1478 16.2302 37.2576 16.1449 37.3461C15.2787 36.8922 14.707 35.9076 14.3984 34.7251C15.5069 35.5616 16.8116 36.1338 18.1015 36.6479C18.977 36.9939 19.864 37.3281 20.7871 37.5017C21.6827 37.6699 22.5978 37.6865 23.5081 37.7031C26.0337 37.748 28.6624 37.7723 30.9477 36.65C31.6024 36.3283 32.2925 35.7782 32.2697 35.0289C32.2436 34.1723 31.3373 33.6838 30.5641 33.3773C32.2108 33.1248 33.5616 31.8046 34.3127 30.2693C34.5936 29.6858 34.8154 29.074 34.9747 28.4434L35.1963 28.6219C35.873 31.0747 36.0478 33.3697 36.0973 35.8536Z" fill="#CE7149"/>
<path d="M24.2478 29.4736L20.9115 30.7591L15.4226 28.1846C15.0602 28.6183 14.785 29.1224 14.6133 29.6673C15.7608 29.9424 16.875 30.3488 17.9355 30.8788C18.4571 31.1353 18.9652 31.42 19.4576 31.7319C19.7254 31.9022 20.291 32.4591 20.6237 32.4162C20.7236 32.3952 20.8179 32.3515 20.8995 32.2882C23.9526 30.2589 26.193 30.1696 29.7722 30.8311L28.0927 29.8195L24.2478 29.4736Z" fill="#E99A4F"/>
<path d="M29.67 42.713L30.1875 41.4433C30.329 41.0919 30.3819 40.7092 30.3414 40.3308C29.893 41.1541 29.1995 41.8059 28.364 42.1892L27.3452 42.6493L27.9999 41.7201C28.1456 41.508 28.229 41.2569 28.2402 40.9971C27.7957 41.4032 27.1886 41.6398 26.5172 41.6523C25.9988 41.6687 25.4866 41.5322 25.0405 41.2586C25.1142 41.6385 25.1182 41.9768 24.833 42.1117L24.7072 42.1719L24.5813 42.1117C23.6583 41.6717 22.934 41.2185 22.3262 40.6926C22.4286 41.1285 22.5457 41.2849 22.6053 41.3389L23.2553 41.9291L22.3911 41.8834C21.1106 41.8142 20.0483 40.5757 19.4793 39.4617H19.4753C18.2315 39.4617 17.0333 38.7401 16.3847 37.6538L16.3532 37.687L16.1993 37.8454L16.0065 37.7444C15.0533 37.24 14.3638 36.1019 14.07 34.5354C13.6395 32.241 14.1289 29.4672 15.1872 28.2163C15.2132 28.1855 15.2448 28.1603 15.2803 28.1421C15.3157 28.124 15.3543 28.1132 15.3937 28.1104C15.4332 28.1076 15.4728 28.113 15.5103 28.126C15.5478 28.139 15.5824 28.1597 15.6122 28.1865C15.642 28.2134 15.6664 28.2461 15.684 28.2828C15.7016 28.3194 15.712 28.3593 15.7146 28.4C15.7173 28.4409 15.7122 28.4818 15.6996 28.5206C15.6869 28.5593 15.667 28.5951 15.641 28.6259C14.6938 29.7481 14.2641 32.2929 14.663 34.4171C14.894 35.6445 15.3779 36.562 16.0386 37.0359C16.0511 36.9775 16.0497 36.9166 16.0346 36.8588L16.613 36.6831C17.0072 37.9728 18.34 38.9165 19.6453 38.8328L19.8461 38.8196L19.9345 39.0085C20.4566 40.1287 21.1762 40.8109 21.8141 41.0974C21.6988 40.6956 21.625 40.2823 21.5939 39.8644L21.5075 38.9525L22.1133 39.6271C22.7158 40.2975 23.4447 40.84 24.4448 41.3568C24.4214 41.2434 24.3926 41.123 24.3718 41.0372C24.2848 40.6795 24.2379 40.4684 24.2741 40.2975L24.4301 39.5614L24.8223 40.1965C25.1537 40.7334 25.7836 41.0462 26.5058 41.033C27.2281 41.0199 27.8446 40.6871 28.1599 40.1336L28.4618 39.6036L28.6961 40.1689C28.8289 40.492 28.8752 40.8462 28.8299 41.1943C29.4319 40.7272 29.8788 40.0786 30.1091 39.3379L30.3294 38.6065L30.6641 39.2908C30.8567 39.6899 30.9571 40.1298 30.9573 40.5757C31.5104 39.8544 31.8983 39.013 32.0919 38.1146L32.1876 37.6662L32.5551 37.9243C32.864 38.1414 33.1346 38.4118 33.355 38.7235C34.2018 37.6573 34.7787 36.3902 35.0338 35.0363L35.1469 34.4212L35.8478 35.2231C35.9924 32.6223 35.6222 30.4988 34.6985 28.5871C34.6754 28.5504 34.6601 28.509 34.6536 28.4657C34.6471 28.4224 34.6495 28.3782 34.6606 28.336C34.6718 28.2937 34.6914 28.2543 34.7183 28.2204C34.7451 28.1866 34.7787 28.1589 34.8165 28.1393C34.8544 28.1197 34.8959 28.1087 34.9382 28.1067C34.9806 28.1049 35.0228 28.1122 35.0623 28.1284C35.1016 28.1445 35.1373 28.1691 35.1669 28.2004C35.1965 28.2318 35.2194 28.2693 35.234 28.3104C36.2936 30.5037 36.6618 32.9461 36.3927 36.0008L36.3304 36.7093L35.4917 35.7497C35.1397 37.13 34.469 38.4014 33.5371 39.4548L33.2519 39.7765L33.0511 39.3932C32.9202 39.1467 32.7536 38.9223 32.5571 38.7276C32.2107 39.9122 31.5556 40.9753 30.6634 41.8004L29.67 42.713Z" fill="#213346"/>
<path d="M23.0928 35.4495C22.913 35.4491 22.7407 35.3752 22.6135 35.2438C22.4863 35.1125 22.4146 34.9344 22.4141 34.7486V32.0668C22.4146 31.8809 22.4863 31.7027 22.6135 31.5713C22.7407 31.4398 22.913 31.3657 23.0928 31.3652H27.8401C28.0198 31.3659 28.192 31.4401 28.3191 31.5716C28.4461 31.703 28.5177 31.881 28.5182 32.0668V34.7486C28.5177 34.9343 28.446 35.1123 28.319 35.2436C28.1919 35.3749 28.0198 35.449 27.8401 35.4495" fill="#F9CDB7"/>
<path d="M28.6335 32.3591V33.1894C28.5807 33.0641 28.4939 32.9575 28.3834 32.8826C28.273 32.8076 28.1438 32.7675 28.0116 32.7673H23.2623C23.0825 32.7677 22.9102 32.8416 22.783 32.973C22.6558 33.1043 22.5841 33.2824 22.5836 33.4682V35.3197C22.5468 35.2324 22.5276 35.1383 22.5273 35.043V32.3591C22.5279 32.1734 22.5995 31.9954 22.7266 31.8641C22.8536 31.7328 23.0258 31.6588 23.2054 31.6582H27.9581C28.1373 31.6594 28.3088 31.7338 28.4352 31.8651C28.5617 31.9963 28.633 32.1739 28.6335 32.3591Z" fill="#E2A78D"/>
<path d="M25.4397 31.2852C25.9297 31.2852 26.4083 31.2852 26.8702 31.2921L27.5503 31.3004H27.7163H27.7986H27.8214H27.8515L27.9111 31.3045C28.0682 31.3229 28.2187 31.3799 28.3502 31.4706C28.4752 31.5565 28.5795 31.6711 28.655 31.8053C28.7304 31.9396 28.775 32.0899 28.7853 32.2448V32.3009V32.3479V32.4247L28.7779 32.5873C28.7779 32.6876 28.7726 32.7873 28.7692 32.8848C28.7572 33.2751 28.7438 33.639 28.7284 33.9704C28.713 34.3018 28.6963 34.6028 28.6782 34.8664C28.6782 34.8996 28.6742 34.9322 28.6715 34.964C28.6715 34.9799 28.6715 34.9958 28.6715 35.011C28.6715 35.0263 28.6681 35.0491 28.6661 35.0671C28.6578 35.1405 28.6406 35.2126 28.6146 35.2816C28.5688 35.3984 28.4978 35.5031 28.4071 35.5874C28.2885 35.6993 28.1352 35.764 27.9747 35.7701C27.9342 35.7716 27.8937 35.7652 27.8555 35.7514C27.8294 35.741 27.8167 35.7299 27.8167 35.7175C27.8167 35.705 27.8294 35.6933 27.8515 35.6801L27.9459 35.6331C28.0536 35.5796 28.147 35.4995 28.2176 35.3999C28.2628 35.3331 28.2945 35.2575 28.3107 35.1778C28.3187 35.134 28.3216 35.0894 28.3194 35.0449V35.0083C28.3194 34.9931 28.3194 34.9771 28.316 34.9612C28.316 34.9294 28.3114 34.8969 28.3093 34.8637C28.2913 34.6001 28.2745 34.2998 28.2598 33.9677C28.2451 33.6355 28.2304 33.2723 28.2183 32.8821C28.2183 32.7845 28.2123 32.6849 28.2096 32.5845L28.2056 32.4316V32.3548V32.3355V32.3244V32.3023C28.198 32.2434 28.1777 32.1871 28.1462 32.1375C28.1147 32.0879 28.0728 32.0463 28.0235 32.0158C27.9738 31.9852 27.9179 31.967 27.8602 31.9625H27.8093H27.727H27.561L26.8809 31.9708C26.419 31.9757 25.9404 31.9784 25.4504 31.9784C24.9604 31.9784 24.4818 31.9784 24.0199 31.9708L23.3284 31.9646H23.1631H23.0808H23.0299C22.9722 31.969 22.9163 31.9873 22.8666 32.0179C22.8173 32.0484 22.7754 32.09 22.7439 32.1396C22.7123 32.1892 22.6921 32.2454 22.6845 32.3043V32.3265V32.3375V32.3569V32.4337L22.6805 32.5866C22.6805 32.6869 22.6744 32.7866 22.6718 32.8841C22.6597 33.2744 22.6457 33.6383 22.6303 33.9697C22.6149 34.3012 22.5988 34.6021 22.5807 34.8657C22.5807 34.899 22.576 34.9315 22.574 34.9633C22.574 34.9792 22.574 34.9951 22.574 35.0104V35.047C22.5718 35.0914 22.5748 35.1361 22.5827 35.1799C22.5987 35.2597 22.6303 35.3353 22.6758 35.402C22.7461 35.5019 22.8395 35.5821 22.9476 35.6351L23.0413 35.6822C23.064 35.6953 23.0761 35.7078 23.0761 35.7196C23.0761 35.7313 23.064 35.7431 23.0379 35.7535C22.9997 35.7673 22.9593 35.7737 22.9188 35.7721C22.757 35.7659 22.6027 35.7002 22.4837 35.5867C22.3932 35.5023 22.3224 35.3977 22.2768 35.2809C22.2509 35.2119 22.2336 35.1398 22.2253 35.0664C22.2253 35.0484 22.2206 35.0256 22.2199 35.0104L22.2159 34.9633C22.2159 34.9315 22.2119 34.899 22.2092 34.8657C22.1918 34.6021 22.1751 34.3018 22.1597 33.9697C22.1443 33.6376 22.1309 33.2744 22.1189 32.8841C22.1189 32.7866 22.1128 32.6869 22.1102 32.5866C22.1102 32.5361 22.1068 32.4849 22.1055 32.4337V32.3569V32.3106V32.2545C22.122 32.0169 22.2185 31.7928 22.3782 31.621C22.5379 31.4493 22.7507 31.3407 22.9797 31.3142L23.0393 31.3101H23.0694H23.0921H23.1745H23.3398L24.0206 31.3018C24.4711 31.2872 24.9497 31.2852 25.4397 31.2852Z" fill="#213346"/>
<path d="M16.1564 29.8428C16.141 30.0604 16.1521 30.2791 16.1892 30.4939C16.2301 30.7159 16.2976 30.9319 16.39 31.1367C16.2393 30.9609 16.1105 30.7664 16.0065 30.5575C15.9022 30.3399 15.8244 30.1099 15.7749 29.8726C15.7246 29.6291 15.7021 29.3804 15.7079 29.1315C15.7107 29.0047 15.7201 28.8782 15.736 28.7524C15.7518 28.6194 15.778 28.488 15.8143 28.3594L16.5112 28.6749C16.4597 28.7557 16.4149 28.8409 16.3773 28.9295C16.3368 29.0244 16.3011 29.1214 16.2702 29.2201C16.2092 29.4225 16.171 29.6314 16.1564 29.8428Z" fill="#213346"/>
<path d="M17.1961 30.4351C17.2503 30.9471 17.4705 31.4591 17.7892 31.9026C17.357 31.5397 17.025 31.0655 16.8266 30.5278C16.7261 30.2404 16.6738 29.9374 16.672 29.6318C16.6694 29.3087 16.7292 28.9884 16.848 28.6895L17.5174 29.0617C17.263 29.4159 17.1432 29.928 17.1961 30.4351Z" fill="#213346"/>
<path d="M19.0897 30.8204C19.1442 31.3173 19.3003 31.7965 19.5475 32.2263C19.1857 31.8549 18.9039 31.4085 18.7208 30.9166C18.5256 30.3998 18.4386 29.8461 18.4658 29.292L19.2155 29.4248C19.0776 29.8754 19.0346 30.3512 19.0897 30.8204Z" fill="#213346"/>
<path d="M31.4302 30.539C31.4555 30.7413 31.4485 30.9466 31.4094 31.1465C31.376 31.3008 31.3251 31.3908 31.2756 31.3873C31.1798 31.3769 31.1417 31.0144 31.0868 30.5812C31.0319 30.1481 30.9958 29.7849 31.0868 29.751C31.131 29.7357 31.2013 29.8112 31.2689 29.9523C31.3533 30.1375 31.4079 30.3357 31.4302 30.539Z" fill="#213346"/>
<path d="M32.9419 30.13C32.9368 30.418 32.8827 30.7028 32.7819 30.9713C32.7009 31.1789 32.6152 31.2855 32.5717 31.2695C32.48 31.2336 32.5884 30.7347 32.5998 30.1203C32.6112 29.5059 32.5362 29.0022 32.6299 28.9717C32.6734 28.9586 32.7538 29.0721 32.8247 29.281C32.9115 29.5547 32.9511 29.8421 32.9419 30.13Z" fill="#213346"/>
<path d="M34.5279 29.876C34.5571 30.0872 34.5682 30.3007 34.5614 30.5139C34.556 30.6878 34.5362 30.861 34.5025 31.0315C34.4429 31.3214 34.3606 31.4874 34.3171 31.4777C34.2187 31.4563 34.3111 30.7602 34.1892 29.9265C34.0674 29.0928 33.8077 28.4445 33.8974 28.3967C33.9375 28.3753 34.0587 28.513 34.1926 28.7745C34.2699 28.9286 34.335 29.089 34.3874 29.254C34.4506 29.457 34.4976 29.665 34.5279 29.876Z" fill="#213346"/>
<path d="M16.744 36.955C16.7178 36.7569 16.712 36.5565 16.7266 36.3572C16.7338 36.2706 16.7454 36.1845 16.7614 36.0991C16.7749 36.0248 16.7926 35.9513 16.8143 35.8791C16.8939 35.6141 16.9937 35.4722 17.0352 35.4874C17.0767 35.5027 17.0666 35.6694 17.0519 35.9247C17.0519 35.9884 17.0439 36.0576 17.0432 36.1323C17.0425 36.207 17.0432 36.2859 17.0432 36.3682C17.047 36.5478 17.0606 36.7271 17.084 36.9051C17.1101 37.0819 17.145 37.2573 17.1885 37.4303C17.2112 37.5099 17.2306 37.5867 17.2554 37.6566C17.2802 37.7264 17.2996 37.7949 17.3223 37.8537C17.4053 38.0938 17.4656 38.2481 17.4247 38.2779C17.3839 38.3076 17.2547 38.1976 17.1061 37.9658C17.0652 37.9037 17.0281 37.839 16.995 37.7721C16.9564 37.6947 16.9218 37.6152 16.8912 37.5341C16.8226 37.3469 16.7733 37.1528 16.744 36.955Z" fill="#213346"/>
<path d="M18.8883 37.9142C18.8459 37.5947 18.8446 37.2709 18.8843 36.9511C18.9157 36.7082 18.9626 36.5608 19.0094 36.5615C19.0563 36.5622 19.0951 36.7131 19.1259 36.9511C19.1567 37.1891 19.1795 37.5157 19.227 37.8644C19.2517 38.038 19.2819 38.2006 19.314 38.3487C19.3334 38.4179 19.3475 38.4912 19.3676 38.5563C19.3761 38.5886 19.3848 38.6197 19.3937 38.6497L19.4211 38.7348C19.488 38.952 19.5476 39.0918 19.5075 39.1229C19.4673 39.1541 19.3428 39.0593 19.2049 38.8462L19.1527 38.7611C19.1359 38.7313 19.1205 38.6988 19.1038 38.6649C19.0694 38.5934 19.0387 38.5199 19.0121 38.4449C18.9546 38.2725 18.9131 38.0948 18.8883 37.9142Z" fill="#213346"/>
<path d="M21.4533 38.3762C21.1708 37.3383 21.1326 36.4631 21.2237 36.4513C21.3147 36.4395 21.5068 37.2712 21.7826 38.2814C22.0584 39.2916 22.3134 40.1052 22.2244 40.1447C22.1354 40.1841 21.7324 39.4133 21.4533 38.3762Z" fill="#213346"/>
<path d="M29.0085 39.2164C29.135 38.7798 29.2241 38.3695 29.3031 38.0734C29.382 37.7772 29.4483 37.5932 29.4958 37.6008C29.5434 37.6084 29.5588 37.8022 29.5414 38.1135C29.5173 38.5223 29.4484 38.9268 29.3359 39.3195C29.2713 39.5384 29.1891 39.7513 29.0902 39.956C29.0455 40.0453 28.9963 40.1321 28.9429 40.2162C28.9182 40.2556 28.8941 40.2944 28.8693 40.3297L28.7937 40.4286C28.5928 40.6784 28.4282 40.7843 28.3967 40.7531C28.3652 40.722 28.4596 40.5545 28.5922 40.2909C28.6089 40.2584 28.6256 40.2217 28.6437 40.1878L28.6959 40.0737C28.7334 39.9962 28.7629 39.9083 28.8044 39.8197C28.874 39.6378 28.9443 39.4364 29.0085 39.2164Z" fill="#213346"/>
<path d="M31.0048 38.4296C31.0945 37.8982 31.1387 37.3987 31.2056 37.0389C31.2725 36.6791 31.3268 36.4598 31.3736 36.4639C31.4205 36.4681 31.4452 36.6957 31.4459 37.0603C31.4506 37.5397 31.4159 38.0186 31.3421 38.4919C31.2978 38.7579 31.2288 39.0187 31.136 39.271C31.0593 39.4787 30.96 39.6766 30.8401 39.8612C30.6299 40.1753 30.4385 40.3081 30.4043 40.2763C30.3702 40.2445 30.4893 40.0549 30.6299 39.7366C30.7113 39.5503 30.7808 39.3587 30.8381 39.163C30.9081 38.9223 30.9637 38.6774 31.0048 38.4296Z" fill="#213346"/>
<path d="M33.0192 37.0995C33.1189 36.6691 33.1879 36.2692 33.2521 35.9765C33.3164 35.6838 33.3746 35.5053 33.4222 35.5109C33.4697 35.5164 33.4945 35.7032 33.4891 36.0056C33.4835 36.4018 33.4361 36.7962 33.3479 37.1818C33.2978 37.3973 33.2307 37.6081 33.147 37.8121C33.1049 37.9055 33.0674 37.9941 33.0219 38.0737C32.9998 38.1131 32.9797 38.1519 32.9549 38.1878L32.888 38.2895C32.7146 38.5449 32.562 38.6625 32.5279 38.6355C32.4937 38.6085 32.5687 38.4369 32.6765 38.1705C32.6899 38.1373 32.7046 38.1013 32.7193 38.0661C32.734 38.0308 32.7468 37.9913 32.7608 37.9512C32.7923 37.8737 32.8177 37.7865 32.8492 37.6973C32.9121 37.516 32.9683 37.3147 33.0192 37.0995Z" fill="#213346"/>
<path d="M33.7029 36.4505C33.8107 36.1772 33.899 35.9115 33.9707 35.6666C34.0041 35.5434 34.0376 35.4272 34.0651 35.3158C34.0925 35.2044 34.1173 35.1013 34.1387 35.0065C34.223 34.626 34.2679 34.3838 34.3181 34.3838C34.3683 34.3838 34.4031 34.6356 34.3777 35.0425C34.371 35.1435 34.3616 35.2549 34.3429 35.3732C34.3241 35.4915 34.302 35.6175 34.2759 35.7496C34.1484 36.3215 33.9292 36.8674 33.6273 37.3645C33.5557 37.4773 33.4887 37.5852 33.4178 37.68C33.3468 37.7748 33.2805 37.8627 33.2169 37.9388C32.9565 38.2453 32.7557 38.392 32.7236 38.3601C32.6915 38.3283 32.822 38.1207 33.0228 37.79C33.073 37.707 33.1279 37.617 33.1828 37.5174C33.2377 37.4178 33.2959 37.3098 33.3568 37.2005C33.4726 36.975 33.5958 36.7224 33.7029 36.4505Z" fill="#213346"/>
<path d="M14.9451 31.1179C14.9953 30.8653 15.1279 30.6889 15.2176 30.718C15.3073 30.747 15.326 30.9553 15.2798 31.1892C15.2336 31.423 15.1366 31.6043 15.0422 31.5967C14.9478 31.5891 14.8949 31.3697 14.9451 31.1179Z" fill="white"/>
<path d="M15.0326 33.8465C14.9437 33.5114 14.9013 33.165 14.9067 32.8177C14.9154 32.5513 14.9596 32.3887 15.0051 32.3887C15.1035 32.3887 15.1671 33.0169 15.3632 33.7545C15.5594 34.4921 15.807 35.0691 15.7227 35.1189C15.6832 35.1424 15.5647 35.0262 15.4268 34.8006C15.2511 34.5041 15.1183 34.1827 15.0326 33.8465Z" fill="white"/>
<path d="M20.9151 31.0459H20.8823C20.5382 31.0334 20.2678 30.8217 20.0509 30.6508L20.0375 30.6404C18.6982 29.5938 17.1357 28.8941 15.481 28.6C15.4031 28.5851 15.334 28.5391 15.2886 28.472C15.2432 28.4048 15.2253 28.3219 15.2387 28.2412C15.2521 28.1604 15.2957 28.0884 15.3601 28.0407C15.4245 27.993 15.5045 27.9734 15.5828 27.9863C17.333 28.2974 18.9857 29.0374 20.4023 30.1443L20.4157 30.1547C20.5804 30.2841 20.7504 30.4176 20.9044 30.4239C21.0583 30.4301 21.2304 30.3125 21.4118 30.1886L21.4633 30.154C22.4915 29.4621 23.8256 29.0774 25.2206 29.0774C26.6149 29.0774 27.9497 29.4593 28.9779 30.154L29.0294 30.1886C29.2108 30.3125 29.3808 30.4294 29.5368 30.4239C29.6928 30.4183 29.8608 30.2855 30.0255 30.1547L30.0388 30.1443C31.4555 29.0374 33.1082 28.2974 34.8584 27.9863C34.9367 27.9734 35.0167 27.993 35.0811 28.0407C35.1455 28.0884 35.1891 28.1604 35.2025 28.2412C35.2159 28.3219 35.1979 28.4048 35.1526 28.472C35.1072 28.5391 35.0381 28.5851 34.9602 28.6C33.3055 28.8941 31.743 29.5938 30.4037 30.6404L30.3903 30.6508C30.1734 30.821 29.903 31.0334 29.5589 31.0459C29.2148 31.0583 28.9277 30.8646 28.6987 30.7089L28.6492 30.675C26.7267 29.377 23.7151 29.377 21.7927 30.675L21.7431 30.7089C21.5209 30.857 21.2464 31.0459 20.9151 31.0459Z" fill="#213346"/>
<path d="M25.2538 27.91C25.1917 27.91 25.1321 27.8846 25.0881 27.8391C25.0442 27.7937 25.0195 27.7322 25.0195 27.6679V24.4443C25.0195 24.3801 25.0442 24.3185 25.0881 24.2731C25.1321 24.2277 25.1917 24.2021 25.2538 24.2021C25.3159 24.2021 25.3756 24.2277 25.4195 24.2731C25.4634 24.3185 25.4881 24.3801 25.4881 24.4443V27.6679C25.4881 27.7322 25.4634 27.7937 25.4195 27.8391C25.3756 27.8846 25.3159 27.91 25.2538 27.91Z" fill="#213346"/>
<path d="M26.1849 19.3512C26.0724 19.8646 26.1126 20.5496 26.4613 20.964C26.8676 21.4484 27.5089 21.3487 28.0625 21.3252C28.7383 21.2938 29.4149 21.3651 30.0707 21.5369C30.6062 21.6753 31.0841 22.0178 31.6283 22.1154C32.2248 22.2226 32.3647 21.8947 31.967 21.4428C31.5025 20.9128 30.8291 20.3489 30.1972 20.0417C28.949 19.452 27.5743 19.2062 26.207 19.3284" fill="#E2A78D"/>
<path d="M26.2475 18.5961C26.1351 19.1088 26.1746 19.7937 26.5233 20.2082C26.9296 20.6925 27.5709 20.5936 28.1245 20.5694C28.8003 20.5382 29.4769 20.6098 30.1327 20.7818C30.6682 20.9236 31.1468 21.262 31.6903 21.3602C32.2867 21.4675 32.4266 21.1388 32.0297 20.687C31.5645 20.1577 30.8917 19.5931 30.2592 19.2866C29.0114 18.6963 27.6368 18.4503 26.2696 18.5725" fill="#E99A4F"/>
<path d="M31.8959 21.6223C31.8133 21.6216 31.7308 21.6135 31.6495 21.5981C31.3229 21.54 31.025 21.4051 30.7371 21.275C30.5231 21.1704 30.3013 21.0839 30.0738 21.0162C29.4401 20.849 28.786 20.7791 28.1326 20.8086C28.073 20.8086 28.0127 20.8142 27.9525 20.8176C27.431 20.8474 26.7824 20.8868 26.346 20.3644C25.9196 19.858 25.9028 19.065 26.018 18.5399C26.0293 18.4883 26.0565 18.4419 26.0956 18.4077C26.1347 18.3628 26.1887 18.3346 26.2469 18.3289C27.6563 18.2017 29.0735 18.4551 30.3596 19.0644C30.9674 19.3598 31.6743 19.9182 32.2038 20.5215C32.5686 20.9366 32.505 21.2224 32.434 21.3552C32.3758 21.4646 32.2346 21.6223 31.8959 21.6223ZM28.4278 20.3202C29.0224 20.3191 29.6148 20.3956 30.1909 20.5478C30.4434 20.6218 30.6896 20.7166 30.9273 20.8315C31.2017 20.956 31.4628 21.0729 31.7305 21.1221C31.825 21.147 31.9239 21.147 32.0184 21.1221C32.013 21.0847 31.9782 20.9906 31.8557 20.8515C31.3657 20.2925 30.7177 19.777 30.1595 19.5065C28.9975 18.9574 27.722 18.7149 26.447 18.8007C26.3861 19.2263 26.439 19.7424 26.6987 20.051C26.9859 20.3921 27.4431 20.3658 27.9271 20.3381L28.1131 20.3285C28.2182 20.3229 28.3233 20.3202 28.4278 20.3202Z" fill="#213346"/>
<path d="M24.4301 18.7784C24.5425 19.2918 24.503 19.9767 24.1543 20.3912C23.7473 20.8755 23.1067 20.7759 22.5531 20.7517C21.8767 20.7203 21.1994 20.7914 20.5429 20.9627C20.0074 21.1011 19.5295 21.4436 18.9853 21.5411C18.3895 21.6484 18.249 21.3197 18.6466 20.8686C19.1151 20.3386 19.7845 19.774 20.4171 19.4675C21.5925 18.896 23.0886 18.6172 24.4066 18.7541" fill="#E2A78D"/>
<path d="M24.1125 18.044C24.225 18.5574 24.1855 19.2424 23.8367 19.6568C23.4297 20.1411 22.7885 20.0415 22.2349 20.0173C21.5591 19.9861 20.8824 20.0577 20.2267 20.2297C19.6912 20.3681 19.2133 20.7106 18.6691 20.8081C18.0726 20.9154 17.9327 20.5867 18.3303 20.1356C18.7949 19.6056 19.4683 19.041 20.1009 18.7345C21.2763 18.163 22.7717 17.8842 24.0904 18.0205" fill="#E99A4F"/>
<path d="M18.4608 21.0695C18.1221 21.0695 17.9809 20.9124 17.9253 20.8052C17.855 20.6723 17.7914 20.39 18.1556 19.9749C18.6851 19.3715 19.3919 18.8125 20.0004 18.517C21.2858 17.9077 22.7022 17.6535 24.1111 17.7795C24.1691 17.7855 24.2228 17.8137 24.2617 17.8584C24.3011 17.8923 24.3285 17.9388 24.3394 17.9905C24.4545 18.5157 24.4378 19.3086 24.012 19.8151C23.5743 20.3354 22.9256 20.2994 22.4055 20.2689L22.2254 20.2593C21.5721 20.2298 20.9179 20.2997 20.2842 20.4668C20.0568 20.5346 19.8349 20.6211 19.6209 20.7256C19.333 20.8557 19.0351 20.9906 18.7085 21.0494C18.6267 21.0635 18.5438 21.0702 18.4608 21.0695ZM18.3383 20.5685C18.4328 20.5929 18.5317 20.5929 18.6262 20.5685C18.8939 20.5201 19.157 20.4025 19.4294 20.2786C19.667 20.1633 19.9132 20.0682 20.1657 19.9943C20.8433 19.8165 21.5425 19.7426 22.2408 19.7749C22.3018 19.7749 22.364 19.7811 22.4269 19.7846C22.9109 19.8123 23.3681 19.8379 23.6559 19.4968C23.915 19.1882 23.9679 18.672 23.9069 18.2465C22.6328 18.1618 21.3583 18.4055 20.1979 18.9557C19.6416 19.2256 18.993 19.741 18.501 20.3001C18.3785 20.4371 18.3437 20.5312 18.3383 20.5685Z" fill="#213346"/>
<path d="M34.9685 22.7501C34.5669 19.5618 32.6143 16.3202 31.074 14.2161L30.6055 13.8515L34.6218 13.709C35.3936 16.6219 35.5951 19.7936 34.9685 22.7501Z" fill="#CE7149"/>
<path d="M28.8746 14.2412C29.0354 14.3079 29.1893 14.3913 29.3338 14.4903C29.4518 14.5701 29.5611 14.6629 29.6598 14.767C29.8278 14.949 29.8907 15.0992 29.8452 15.1531C29.7997 15.2071 29.6537 15.1628 29.4516 15.0736C29.3505 15.0286 29.2327 14.9753 29.1042 14.9158C28.9757 14.8563 28.8364 14.7947 28.6851 14.7325C28.5339 14.6702 28.3906 14.6169 28.2587 14.5664C28.1269 14.5159 28.0044 14.4737 27.9013 14.4349C27.6951 14.3554 27.5606 14.2869 27.5666 14.2121C27.5726 14.1374 27.7152 14.0738 27.9575 14.0641C28.0987 14.0583 28.2401 14.0683 28.3792 14.0938C28.5487 14.1257 28.7147 14.1751 28.8746 14.2412Z" fill="white"/>
<path d="M18.3498 15.0686C20.3037 14.7337 22.257 15.2983 24.1735 15.6913C26.1147 16.0878 27.989 16.1002 29.9302 15.6401C32.5007 15.0306 35.8262 13.7146 37.0726 10.7193C37.1534 10.5252 37.2228 10.3263 37.2807 10.1236C35.9139 11.1338 34.1266 10.9947 32.6145 10.3312C31.1023 9.66765 29.7722 8.54816 28.3638 7.62101C26.9554 6.69386 25.3744 5.94245 23.7698 6.13065C22.2108 6.31331 20.5728 7.36639 19.3927 8.55231C18.9466 8.99155 18.5786 9.50842 18.3056 10.0793C18.0693 10.5927 18.0245 11.3386 17.6182 11.7191C17.4267 11.8983 17.177 11.9585 16.9488 12.0706C15.9119 12.5875 15.5344 14.0771 15.3663 15.3917C15.0203 18.0901 15.1294 20.8577 15.4922 23.5562" fill="#E99A4F"/>
<path d="M35.2024 22.9695C35.1771 22.9694 35.1519 22.966 35.1274 22.9591C35.0891 22.949 35.0531 22.9311 35.0214 22.9065C34.9898 22.882 34.9631 22.8512 34.943 22.816C34.9229 22.7808 34.9096 22.7418 34.9041 22.7013C34.8985 22.6608 34.9007 22.6196 34.9106 22.58C35.6763 19.5107 35.274 16.8282 34.4353 13.7451C34.4234 13.7054 34.4194 13.6636 34.4234 13.6223C34.4273 13.581 34.4393 13.5409 34.4585 13.5044C34.4777 13.4679 34.5038 13.4357 34.5352 13.4098C34.5666 13.3839 34.6027 13.3647 34.6414 13.3535C34.6801 13.3422 34.7206 13.3391 34.7604 13.3442C34.8003 13.3494 34.8388 13.3627 34.8736 13.3835C34.9084 13.4042 34.9389 13.432 34.9632 13.4651C34.9874 13.4982 35.0051 13.536 35.015 13.5763C35.8805 16.759 36.2928 19.5314 35.4943 22.7356C35.4775 22.8025 35.4398 22.8618 35.387 22.9041C35.3341 22.9464 35.2692 22.9694 35.2024 22.9695Z" fill="#213346"/>
<path d="M17.8461 16.006C17.8461 16.1167 17.8461 16.226 17.84 16.3346L17.2202 18.2367L17.0113 18.876C16.8018 19.2828 16.5762 19.6855 16.3674 20.093C16.1585 20.5006 16.1645 20.8936 16.0159 21.3087C15.8271 21.8148 15.6828 22.3374 15.5849 22.8703C15.451 22.1542 15.1832 21.4402 15.1016 20.7151C15.4296 20.4293 15.6331 20.0079 15.7355 19.5741C15.8466 19.1043 15.8486 18.6151 15.8506 18.1315C16.1073 18.453 16.2791 18.8377 16.3493 19.2482C16.3526 19.233 16.356 19.2164 16.3593 19.2005C16.5414 18.2927 16.6856 17.378 16.7918 16.4564C16.84 16.5498 16.8841 16.6446 16.9256 16.7422C17.0041 16.9648 17.067 17.1931 17.1137 17.4251C17.1137 17.4022 17.1198 17.3808 17.1218 17.3559C17.2168 16.6418 17.2797 15.9229 17.3105 15.1992C17.5265 15.4394 17.707 15.7113 17.8461 16.006Z" fill="#CE7149"/>
<path d="M34.8032 13.5393C34.1588 13.9863 33.4682 14.3576 32.7442 14.6463C32.5962 14.7065 32.447 14.7653 32.2977 14.8207C31.977 14.9397 31.6544 15.0456 31.3338 15.1417C30.7588 15.3147 30.1911 15.4531 29.6556 15.5638C27.7144 15.9665 25.8401 15.9554 23.8989 15.6088C22.872 15.4247 21.8358 15.1978 20.7936 15.0719L18.2894 15.1265C18.2894 15.1542 18.2954 15.1826 18.2974 15.2102L18.2265 15.2199L18.1147 15.5119L18.0397 15.7063C18.0518 15.5984 18.0598 15.4891 18.0625 15.3784C18.0679 15.1905 18.06 15.0025 18.0391 14.8159L20.4194 14.764C20.1143 14.8336 19.8046 14.8799 19.493 14.9023H19.5914C19.9144 14.8901 20.2354 14.8437 20.5493 14.764C21.2186 14.5951 22.1089 14.1938 22.7341 13.8721C22.6531 14.1157 22.4664 14.5799 22.2341 14.6747C23.1512 14.728 23.8239 14.4983 24.7215 14.2976C24.5065 14.6096 24.2129 14.8548 23.8728 15.0068L23.838 15.022C23.8754 15.022 23.9129 15.022 23.9511 15.022C23.9625 15.0158 23.9732 15.0089 23.9839 15.002C24.1354 14.9058 24.2792 14.797 24.4136 14.6768L24.1646 15.0919C25.1627 15.2143 26.1745 15.1097 27.1293 14.7854L27.4901 14.6629L27.8757 14.6076C27.7612 14.7287 27.4352 14.8366 27.2994 14.9307C27.0971 15.0721 26.8746 15.1798 26.64 15.2497C26.7317 15.2497 26.8736 15.3964 26.9647 15.3881C27.6428 15.3396 28.2626 15.0497 28.928 14.894C29.1562 14.8408 29.434 14.7328 29.6643 14.6768C29.8651 14.6263 30.4743 14.4194 30.6684 14.3433L30.5861 14.5453L30.8277 14.5398L30.6865 14.499L30.4856 14.7065C30.493 14.7065 30.4281 14.8131 30.4354 14.8103C31.56 14.4789 33.597 13.8257 34.6961 13.4141H34.7677C34.7784 13.4535 34.7911 13.4957 34.8032 13.5393Z" fill="#CE7149"/>
<path d="M15.4612 23.8896C15.4289 23.8897 15.3968 23.8844 15.3661 23.8737C15.2904 23.8475 15.2279 23.7913 15.1921 23.7175C15.1564 23.6438 15.1503 23.5583 15.1754 23.48C15.3762 22.8663 17.8871 15.1163 17.9125 15.0388C17.9379 14.9604 17.9923 14.8957 18.0639 14.8589C18.1355 14.822 18.2182 14.816 18.294 14.8423C18.3699 14.8685 18.4325 14.9249 18.4681 14.9988C18.5038 15.0727 18.5095 15.1583 18.4841 15.2367C18.4587 15.3149 15.9445 23.0642 15.747 23.6779C15.7268 23.7397 15.6884 23.7933 15.6371 23.8313C15.5858 23.8693 15.5243 23.8897 15.4612 23.8896Z" fill="#213346"/>
<path d="M15.7704 15.9032C15.8241 15.7642 15.9132 15.6427 16.0282 15.5517C16.1232 15.4825 16.2129 15.4679 16.2705 15.5095C16.328 15.551 16.3468 15.6395 16.3374 15.7461C16.3064 15.9964 16.211 16.2334 16.061 16.4325C15.994 16.5134 15.9197 16.5618 15.8494 16.548C15.7791 16.5342 15.7283 16.4574 15.7095 16.3404C15.6912 16.1917 15.7123 16.0406 15.7704 15.9032Z" fill="white"/>
<path d="M17.083 14.4805C17.2772 14.3871 17.4847 14.4189 17.5429 14.5496C17.6012 14.6804 17.4941 14.8658 17.2999 14.9599C17.1058 15.054 16.8983 15.0215 16.8401 14.8908C16.7818 14.76 16.8889 14.5746 17.083 14.4805Z" fill="white"/>
<path d="M17.9729 13.4848C18.1135 13.1762 18.3076 12.9499 18.4415 12.9963C18.5754 13.0426 18.5914 13.3685 18.4368 13.7096C18.2822 14.0507 18.0291 14.2472 17.9093 14.1697C17.7895 14.0922 17.8337 13.794 17.9729 13.4848Z" fill="white"/>
<path d="M16.9011 10.7107C16.7146 10.4739 16.5013 10.2612 16.2658 10.0769C16.0824 9.93849 15.9499 9.8783 15.9204 9.91289C15.8609 9.98693 16.2277 10.3972 16.6474 10.9279L16.8275 11.1535C16.6858 11.1054 16.5365 11.0854 16.3877 11.0947C16.2538 11.1071 16.1761 11.1479 16.1741 11.1936C16.1721 11.2393 16.2411 11.2863 16.3542 11.332C16.4673 11.3776 16.6133 11.4323 16.7759 11.4939C16.9386 11.5555 17.0845 11.6157 17.1976 11.6537L17.2492 11.6696C17.3643 11.7997 17.446 11.8717 17.4808 11.8509C17.5156 11.8302 17.4855 11.6821 17.3864 11.4704C17.2538 11.1985 17.0909 10.9435 16.9011 10.7107Z" fill="#213346"/>
<path d="M24.8825 14.2635C24.8463 14.2829 24.8035 14.3078 24.7553 14.3368C24.7071 14.3659 24.6535 14.3991 24.5966 14.4358L24.5083 14.4932L24.4159 14.5541L24.2198 14.6842L24.1174 14.7533C24.1 14.7644 24.0832 14.7755 24.0651 14.7859L24.0129 14.8191C23.9429 14.8624 23.8719 14.9046 23.8001 14.9457C23.7284 14.9851 23.6562 15.0232 23.5845 15.0585L23.5296 15.0834C23.5122 15.0924 23.4942 15.1 23.4754 15.1083L23.3683 15.1533C23.2967 15.1809 23.2271 15.2086 23.1588 15.2287C23.1247 15.2411 23.0919 15.2487 23.0591 15.2591C23.0263 15.2695 22.9921 15.2757 22.9633 15.2847L22.873 15.3055L22.7893 15.3214C22.7364 15.3297 22.6889 15.3373 22.6487 15.3415C22.6086 15.3456 22.5764 15.3491 22.5543 15.3518L22.5195 15.3567L22.547 15.3781C22.5734 15.3983 22.6011 15.4165 22.63 15.4328C22.675 15.4591 22.7218 15.4823 22.7699 15.502L22.8609 15.5317C22.893 15.54 22.9279 15.5483 22.964 15.556C23.0002 15.5636 23.039 15.5684 23.0785 15.5719C23.118 15.5753 23.1601 15.5781 23.2023 15.5781C23.2921 15.5784 23.3816 15.5705 23.4701 15.5546C23.5166 15.5471 23.5626 15.537 23.608 15.5241L23.6749 15.5048L23.7418 15.4812C23.8341 15.4477 23.9236 15.4067 24.0096 15.3588C24.0937 15.3107 24.1749 15.2574 24.2526 15.1989L24.3088 15.1547C24.3269 15.1401 24.3443 15.1242 24.3617 15.109C24.3972 15.0785 24.4286 15.0474 24.4628 15.0149C24.5243 14.9545 24.5824 14.8905 24.6368 14.8232C24.6629 14.7914 24.687 14.7596 24.7104 14.7284L24.774 14.6371C24.8135 14.5769 24.8477 14.5209 24.8758 14.4697C24.9039 14.4185 24.9273 14.3728 24.9427 14.3313C24.9581 14.2898 24.9735 14.2621 24.9822 14.24L24.9949 14.2061L24.9635 14.2213C24.9481 14.2282 24.9186 14.2434 24.8825 14.2635Z" fill="#213346"/>
<path d="M27.7127 14.6907L27.5735 14.7551C27.5206 14.7807 27.4617 14.8098 27.3968 14.8395C27.3653 14.8554 27.3299 14.8727 27.2984 14.8886L27.1933 14.9405L26.9711 15.0519C26.9322 15.0699 26.8934 15.0899 26.8539 15.11C26.8338 15.1204 26.8144 15.1301 26.7937 15.1391L26.7334 15.1689C26.6531 15.2097 26.5701 15.247 26.4891 15.2885C26.4081 15.33 26.3244 15.3681 26.2428 15.4048L26.1819 15.4332C26.1618 15.4435 26.1417 15.4525 26.1216 15.4615C26.0808 15.4795 26.0413 15.4974 26.0025 15.5175C25.9235 15.5514 25.8478 15.5902 25.7749 15.6221C25.738 15.6387 25.7026 15.6546 25.6684 15.6719C25.6343 15.6892 25.6015 15.7022 25.568 15.7175C25.5011 15.7493 25.4435 15.777 25.3906 15.8019L25.2514 15.8711C25.2126 15.8904 25.1845 15.907 25.161 15.9188L25.1289 15.9376L25.1644 15.9458C25.1878 15.9506 25.222 15.9569 25.2648 15.9631C25.3167 15.9713 25.3689 15.9767 25.4214 15.9791C25.4883 15.9825 25.5554 15.9825 25.6222 15.9791C25.6591 15.9791 25.6979 15.9756 25.738 15.9722C25.7782 15.9687 25.8184 15.9631 25.8612 15.9576C25.9456 15.9472 26.0332 15.9285 26.1243 15.9077C26.1691 15.8967 26.2147 15.8836 26.2582 15.8698C26.2809 15.8635 26.3044 15.8566 26.3251 15.849L26.392 15.8241C26.4851 15.793 26.5755 15.7548 26.6665 15.7112C26.7575 15.6677 26.8445 15.6207 26.9276 15.5681L26.9905 15.53C27.0112 15.5169 27.0306 15.503 27.0507 15.4892C27.0902 15.4615 27.1297 15.4345 27.1672 15.4061C27.2408 15.3473 27.3118 15.2913 27.374 15.2311L27.4644 15.1433C27.4925 15.1142 27.5186 15.0837 27.5441 15.056C27.5903 15.0049 27.6337 14.9511 27.6739 14.8948C27.7062 14.8521 27.7362 14.8075 27.7636 14.7613C27.787 14.7233 27.8038 14.6921 27.8152 14.6707L27.8326 14.6367L27.7978 14.6499C27.7837 14.6596 27.7522 14.6727 27.7127 14.6907Z" fill="#213346"/>
<path d="M31.2972 13.8207C31.2583 13.8532 31.2108 13.8899 31.1566 13.9342C31.1298 13.9556 31.1017 13.9791 31.0723 14.0034L30.9779 14.0788C30.9457 14.1051 30.9109 14.1334 30.8781 14.1611L30.7704 14.2511C30.6981 14.312 30.6177 14.3708 30.5394 14.4358C30.4979 14.4662 30.4578 14.4988 30.4163 14.5313C30.3962 14.5472 30.3754 14.5638 30.354 14.579L30.2904 14.6268C30.2067 14.696 30.1177 14.7548 30.032 14.8198C29.9463 14.8848 29.8566 14.9471 29.7683 15.0066L29.7013 15.0516C29.6806 15.0675 29.6585 15.082 29.6344 15.0966C29.5909 15.1256 29.5481 15.154 29.5059 15.1837C29.4202 15.2377 29.3392 15.2965 29.2589 15.3457L29.1431 15.4218C29.1063 15.4467 29.0681 15.4674 29.0333 15.491L28.9322 15.5601L28.8398 15.6183C28.7816 15.6556 28.7307 15.6875 28.6879 15.7165C28.6451 15.7456 28.6123 15.7663 28.5895 15.7857L28.5547 15.8106H28.5969C28.6243 15.8106 28.6638 15.8106 28.7147 15.8071C28.7757 15.8045 28.8364 15.7984 28.8967 15.7892L29.0085 15.7719C29.0474 15.7643 29.0875 15.7553 29.1297 15.7449C29.1719 15.7345 29.2167 15.7248 29.2636 15.7117C29.3104 15.6985 29.3546 15.6833 29.4021 15.6681C29.4972 15.6376 29.5942 15.5989 29.6947 15.5525C29.7442 15.5297 29.7937 15.5048 29.8439 15.4792C29.8694 15.4667 29.8948 15.4543 29.9196 15.4398L29.9939 15.3969C30.0943 15.3408 30.1907 15.2737 30.2877 15.2073C30.3848 15.1408 30.4745 15.0654 30.5602 14.9872L30.6271 14.9291C30.6485 14.9104 30.6686 14.8897 30.6887 14.8696C30.7289 14.8288 30.769 14.7894 30.8065 14.7492C30.8801 14.6662 30.9504 14.5866 31.0107 14.5043L31.0977 14.3846C31.1251 14.3452 31.1486 14.305 31.1727 14.2684C31.1968 14.2317 31.2182 14.1943 31.2396 14.159L31.2932 14.0566C31.3223 14.0012 31.3484 13.9441 31.3715 13.8857C31.3909 13.8373 31.4049 13.7986 31.4143 13.7723L31.4277 13.7314L31.3929 13.7564C31.3681 13.7667 31.336 13.7889 31.2972 13.8207Z" fill="#213346"/>
<path d="M17.2021 17.5208C17.2021 17.498 17.2021 17.4751 17.1974 17.4516C17.1927 17.406 17.188 17.3617 17.1833 17.3174C17.1786 17.2731 17.1686 17.2309 17.1612 17.1887C17.1545 17.1479 17.1456 17.1075 17.1345 17.0676C17.1238 17.0282 17.113 16.9908 17.103 16.9541C17.093 16.9175 17.0776 16.885 17.0655 16.8504C17.0535 16.8158 17.0401 16.7867 17.0287 16.757C17.0173 16.7272 17.0006 16.7016 16.9879 16.676C16.9667 16.6322 16.9423 16.5901 16.9149 16.5501C16.8922 16.5162 16.8741 16.4906 16.862 16.4733L16.8426 16.4463L16.85 16.4788L16.8734 16.5688C16.8848 16.6068 16.8955 16.6539 16.9062 16.7071C16.9122 16.7334 16.9183 16.7618 16.925 16.7915C16.9316 16.8213 16.9343 16.8531 16.9397 16.8863C16.945 16.9195 16.9531 16.9555 16.9557 16.988C16.9584 17.0206 16.9638 17.0572 16.9678 17.0981C16.9718 17.1389 16.9745 17.1742 16.9772 17.2136C16.9798 17.253 16.9845 17.2932 16.9839 17.3347C16.9832 17.3762 16.9839 17.4177 16.9839 17.4599C16.9839 17.4814 16.9839 17.5028 16.9839 17.5243V17.5886C16.9839 17.632 16.9825 17.6756 16.9798 17.7194C16.9798 17.7637 16.9758 17.8073 16.9725 17.8515C16.9651 17.9394 16.9591 18.028 16.9484 18.1145L16.9417 18.1795L16.9337 18.2445C16.9283 18.2867 16.9236 18.329 16.9183 18.3712C16.9055 18.4535 16.8968 18.5351 16.8841 18.6112C16.8788 18.65 16.8734 18.6874 16.8687 18.7233C16.864 18.7593 16.858 18.7925 16.8527 18.8285C16.8433 18.8977 16.8346 18.9579 16.8266 19.0132C16.8185 19.0686 16.8132 19.117 16.8085 19.1565C16.8038 19.1959 16.7998 19.2257 16.7978 19.2499C16.7958 19.2741 16.7978 19.2831 16.7978 19.2831L16.8132 19.254L16.854 19.1703C16.8714 19.1336 16.8908 19.0894 16.9129 19.0375C16.935 18.9856 16.9578 18.9274 16.9798 18.8624L17.016 18.7607C17.0267 18.7257 17.0381 18.689 17.0501 18.6507C17.0742 18.5753 17.0936 18.4936 17.1171 18.4092C17.1271 18.367 17.1358 18.3234 17.1445 18.2798L17.1579 18.2106L17.1679 18.1414C17.1833 18.0515 17.1927 17.9581 17.2001 17.8647C17.2041 17.8183 17.2041 17.7706 17.2061 17.7263C17.2084 17.6802 17.2084 17.6341 17.2061 17.5879L17.2021 17.5208Z" fill="#213346"/>
<path d="M16.3863 19.1103L16.3709 19.0452C16.3655 19.0238 16.3595 19.0023 16.3528 18.9816C16.3401 18.9394 16.3287 18.8979 16.3133 18.8584C16.2864 18.7814 16.2542 18.7065 16.2169 18.6342C16.1995 18.5996 16.1821 18.565 16.1634 18.5353C16.1446 18.5055 16.1259 18.4744 16.1071 18.4467C16.0732 18.3963 16.0363 18.348 15.9967 18.3021C15.9612 18.2613 15.9298 18.2281 15.9003 18.2018C15.8708 18.1755 15.8488 18.1561 15.8334 18.1437L15.8086 18.125L15.8233 18.1527C15.8327 18.1707 15.8474 18.197 15.8648 18.2309C15.8822 18.2648 15.903 18.3049 15.9244 18.3519C15.9458 18.399 15.9699 18.453 15.9913 18.5118C16.0034 18.5408 16.0148 18.5713 16.0261 18.6038C16.0375 18.6363 16.0489 18.6688 16.0596 18.7027C16.0824 18.7719 16.1025 18.8411 16.1212 18.92C16.1312 18.9574 16.1386 18.9968 16.1473 19.0355C16.152 19.0556 16.156 19.075 16.1594 19.095L16.1701 19.1552C16.1841 19.2355 16.1948 19.3178 16.2035 19.4009C16.2122 19.4839 16.2163 19.5662 16.2176 19.6486V19.7101C16.2186 19.7302 16.2186 19.7503 16.2176 19.7703C16.2176 19.8112 16.2176 19.8506 16.2176 19.89C16.2176 19.9295 16.2142 19.9682 16.2109 20.0056C16.2075 20.0429 16.2049 20.081 16.2002 20.117C16.1955 20.153 16.1928 20.1862 16.1881 20.2222C16.1835 20.2581 16.1794 20.2913 16.1734 20.3211C16.164 20.3841 16.1527 20.4422 16.1426 20.4941C16.1326 20.546 16.1219 20.5909 16.1138 20.6283L16.0938 20.7155C16.0891 20.7362 16.0871 20.7466 16.0871 20.7466L16.1051 20.721C16.1172 20.7044 16.1346 20.6795 16.1553 20.647C16.1761 20.6145 16.1995 20.5729 16.2223 20.5245C16.2502 20.4704 16.2752 20.4148 16.2972 20.3578C16.3106 20.3266 16.3207 20.2934 16.3327 20.2588C16.3448 20.2242 16.3548 20.1896 16.3649 20.1509C16.3749 20.1121 16.3843 20.0748 16.3923 20.0346C16.4003 19.9945 16.4084 19.9537 16.4144 19.9115C16.4204 19.8693 16.4258 19.8264 16.4298 19.7828C16.4298 19.7607 16.4338 19.7385 16.4351 19.7171V19.6479C16.4378 19.5574 16.4351 19.4668 16.4271 19.3766C16.4183 19.2872 16.4046 19.1982 16.3863 19.1103Z" fill="#213346"/>
<path d="M34.9704 15.2283C34.9329 15.2055 34.8131 15.3259 34.6765 15.5618C34.6391 15.6256 34.6049 15.6915 34.5741 15.759C34.5386 15.8282 34.5072 15.9105 34.4737 15.995C34.4059 16.1792 34.3523 16.3687 34.313 16.5616C34.2755 16.755 34.2532 16.9512 34.2461 17.1484C34.2461 17.239 34.2461 17.3248 34.2461 17.4057C34.2461 17.4867 34.2568 17.5607 34.2655 17.6285C34.3017 17.9011 34.3659 18.0603 34.4088 18.0547C34.5038 18.0416 34.4757 17.394 34.6343 16.6301C34.793 15.8663 35.0527 15.2788 34.9704 15.2283Z" fill="#213346"/>
<path d="M34.4438 11.1587C34.4706 11.1311 34.4947 11.1055 34.5161 11.0819C34.6018 10.9878 34.642 10.929 34.6279 10.9117C34.6139 10.8944 34.5155 10.9415 34.3562 11.0356C34.3651 11.0227 34.3677 11.013 34.3642 11.0065C34.3428 10.965 34.1446 11.0377 33.8287 11.1373C33.7497 11.1622 33.6633 11.1899 33.5696 11.2141C33.4759 11.2383 33.3762 11.2653 33.2711 11.2923C33.0595 11.3407 32.8266 11.3857 32.5789 11.4175C32.3313 11.4493 32.0943 11.4597 31.8774 11.4639C31.7696 11.4639 31.6666 11.4639 31.5702 11.4639C31.4738 11.4639 31.3834 11.4563 31.3024 11.4521C30.9724 11.4314 30.7669 11.4092 30.7528 11.4521C30.7388 11.495 30.9349 11.5905 31.2716 11.6714C31.3633 11.6939 31.456 11.7112 31.5494 11.7233C31.6498 11.7406 31.7583 11.7482 31.8727 11.7572C32.1208 11.7703 32.3695 11.7625 32.6164 11.7337C32.8537 11.703 33.0883 11.6531 33.3179 11.5843C33.038 11.701 32.7512 11.799 32.4591 11.8776C32.1639 11.9534 31.8643 12.0093 31.5621 12.0451C31.4222 12.0575 31.289 12.0734 31.1645 12.0762C31.1016 12.0762 31.0413 12.0845 30.9831 12.0845H30.8151C30.388 12.0845 30.1189 12.0575 30.1096 12.1053C30.1055 12.1267 30.1678 12.1585 30.2869 12.1987L30.386 12.2298C30.4228 12.2395 30.463 12.2478 30.5058 12.2575C30.6038 12.2797 30.7027 12.2966 30.8024 12.308L30.9764 12.3281C31.0367 12.3336 31.1003 12.3343 31.1659 12.3377C31.2997 12.346 31.437 12.3377 31.5849 12.3377C31.9055 12.3173 32.2237 12.2666 32.5354 12.1862C32.846 12.1019 33.1485 11.9885 33.4391 11.8472C33.573 11.778 33.6968 11.7143 33.8079 11.6396C33.8642 11.6043 33.919 11.5704 33.9699 11.5372L34.1132 11.4334C34.195 11.3737 34.2739 11.3098 34.3495 11.2418C34.3849 11.2127 34.4164 11.1857 34.4438 11.1587Z" fill="#213346"/>
<path d="M29.4864 9.77877C29.5426 9.74348 29.5982 9.70958 29.6484 9.67567L29.7916 9.57258C29.8736 9.51304 29.9525 9.44907 30.0279 9.38092C30.0614 9.35117 30.0949 9.32419 30.1203 9.2972C30.1457 9.27022 30.1718 9.24393 30.1933 9.2204C30.2783 9.1263 30.3184 9.0668 30.305 9.0502C30.2917 9.03359 30.1919 9.07995 30.0326 9.17405C30.0413 9.1609 30.044 9.15121 30.0406 9.14429C30.0192 9.10347 29.8217 9.17612 29.5051 9.27576C29.4261 9.29997 29.3398 9.32765 29.2461 9.35256C29.1524 9.37746 29.0526 9.40376 28.9475 9.43074C28.7367 9.47917 28.5031 9.52415 28.2554 9.55528C28.0077 9.58642 27.7707 9.59749 27.5545 9.60233C27.4461 9.60233 27.343 9.60233 27.2466 9.60233C27.1502 9.60233 27.0599 9.59472 26.9789 9.58988C26.6495 9.56981 26.4433 9.54767 26.4293 9.58988C26.4152 9.63208 26.6114 9.72826 26.9481 9.80921C27.0324 9.82858 27.1255 9.84796 27.2259 9.8611C27.3263 9.87425 27.4347 9.88601 27.5492 9.89501C27.7973 9.90819 28.0461 9.90009 28.2929 9.87079C28.5302 9.84045 28.7648 9.79047 28.9944 9.72134C28.7154 9.83874 28.4295 9.93743 28.1382 10.0168C27.842 10.0924 27.5412 10.1481 27.2379 10.1835C27.098 10.196 26.9655 10.2119 26.8403 10.2147C26.7774 10.2147 26.7171 10.223 26.6589 10.223H26.4915C26.0638 10.223 25.7947 10.196 25.7853 10.243C25.7813 10.2645 25.8436 10.297 25.9627 10.3371L26.0618 10.3683C26.0986 10.378 26.1388 10.3863 26.1816 10.3959C26.2795 10.4182 26.3785 10.435 26.4782 10.4465L26.6522 10.4658C26.7124 10.4721 26.776 10.4727 26.8416 10.4762C26.9755 10.4845 27.1094 10.4762 27.2607 10.4762C27.5813 10.4554 27.8994 10.4047 28.2112 10.3247C28.5218 10.2404 28.8243 10.1269 29.1149 9.98565C29.2494 9.91507 29.3753 9.85142 29.4864 9.77877Z" fill="#213346"/>
<path d="M25.2411 8.01417C25.2658 8.00033 25.2899 7.98441 25.3154 7.9685C25.3642 7.93598 25.4184 7.90485 25.4707 7.86818C25.4981 7.85157 25.5242 7.83358 25.551 7.81559C25.565 7.8066 25.5784 7.79691 25.5925 7.78861L25.6333 7.76093C25.6875 7.72357 25.7444 7.68828 25.7993 7.64884C25.8542 7.6094 25.9091 7.57273 25.9647 7.53606L26.0048 7.50769C26.0182 7.49732 26.0316 7.48832 26.045 7.47933C26.0724 7.46065 26.0992 7.44266 26.1246 7.42328C26.1775 7.3873 26.2271 7.34856 26.2759 7.31465L26.3429 7.26207C26.3656 7.24408 26.3877 7.22817 26.4098 7.21225L26.5276 7.12023C26.5624 7.09048 26.5946 7.06488 26.6193 7.04412C26.6441 7.02336 26.6648 7.0033 26.6782 6.99084L26.6883 6.98116L26.7023 6.97701L26.8181 6.94172L26.8596 6.92788L26.8181 6.91474C26.7907 6.90643 26.7512 6.89467 26.6996 6.8836C26.6481 6.87253 26.5865 6.85938 26.5142 6.849C26.4419 6.83863 26.3603 6.83102 26.2706 6.82617C26.2257 6.82617 26.1789 6.82617 26.13 6.82617C26.0811 6.82617 26.0316 6.82617 25.9807 6.83102C25.8727 6.83681 25.765 6.84835 25.6581 6.86561C25.6025 6.87461 25.5463 6.88568 25.4894 6.89813L25.4037 6.9175L25.318 6.93964C25.202 6.97088 25.088 7.00946 24.9766 7.05519C24.8633 7.10223 24.7533 7.15725 24.6473 7.21986C24.6212 7.23509 24.5951 7.251 24.5697 7.2676L24.494 7.31811C24.4452 7.3534 24.3963 7.3873 24.3514 7.42605C24.2634 7.49786 24.1817 7.57749 24.1071 7.66406L24.0549 7.72564L24.008 7.7893C23.9784 7.82906 23.9511 7.87065 23.9264 7.91384C23.9016 7.9527 23.8793 7.99314 23.8594 8.03492C23.8501 8.0543 23.8414 8.07298 23.832 8.09166C23.8226 8.11034 23.8179 8.12971 23.8112 8.1477C23.7878 8.20973 23.7693 8.27359 23.7557 8.33867C23.7472 8.3802 23.7414 8.42227 23.7383 8.46459C23.7383 8.49296 23.7383 8.50818 23.7383 8.50818L23.7657 8.47428C23.7845 8.45214 23.8066 8.41824 23.84 8.37949C23.8735 8.34074 23.9117 8.293 23.9605 8.24111L23.9967 8.20306L24.0375 8.16431C24.0649 8.13802 24.0931 8.11034 24.1252 8.08474C24.1573 8.05914 24.1874 8.02939 24.2236 8.0031L24.2758 7.96227L24.3314 7.92214C24.4057 7.86748 24.4893 7.81628 24.575 7.76439L24.7089 7.68897L24.7758 7.65299C24.7986 7.64054 24.822 7.62878 24.8461 7.61771C24.9412 7.56997 25.0409 7.52707 25.1406 7.48486C25.2183 7.45303 25.2959 7.42259 25.3749 7.39353L25.3328 7.4302C25.3187 7.44266 25.306 7.4558 25.2926 7.46895C25.2665 7.49455 25.2411 7.52015 25.217 7.54644C25.1694 7.59752 25.1247 7.65134 25.0831 7.70765C25.0643 7.73464 25.0456 7.76024 25.0289 7.78653C25.0121 7.81282 24.9967 7.83912 24.9827 7.86472C24.9575 7.91073 24.9351 7.95834 24.9157 8.00725C24.8984 8.04505 24.8839 8.08414 24.8722 8.12418C24.8615 8.15739 24.8548 8.18437 24.8501 8.20236L24.8441 8.23142L24.8702 8.21966C24.8869 8.21205 24.911 8.20029 24.9405 8.18507L25.0429 8.12833L25.1701 8.0543L25.2411 8.01417Z" fill="#213346"/>
<path d="M19.3749 11.3397C19.3691 11.3065 19.3618 11.2671 19.3529 11.2214L19.3221 11.0741C19.3154 11.0478 19.3093 11.0201 19.3026 10.9917C19.296 10.9634 19.2893 10.935 19.2819 10.9052C19.2665 10.8471 19.2538 10.7842 19.235 10.7219C19.2283 10.6901 19.2196 10.6589 19.2103 10.6264C19.2056 10.6105 19.2016 10.5946 19.1976 10.578L19.1842 10.5295C19.1654 10.4645 19.15 10.3981 19.1299 10.333C19.1099 10.268 19.0918 10.2016 19.0744 10.1358L19.0603 10.0874C19.0543 10.0715 19.0503 10.0556 19.0456 10.0397C19.0362 10.0078 19.0275 9.97601 19.0168 9.94488C19.0001 9.88191 18.9787 9.82172 18.9613 9.7636L18.9338 9.67849C18.9238 9.65082 18.9157 9.62383 18.907 9.59754L18.8568 9.45501L18.8133 9.34154C18.8013 9.30971 18.7899 9.2848 18.7819 9.2675L18.7758 9.25505V9.23983C18.7758 9.18655 18.7758 9.14365 18.7758 9.11529C18.7758 9.08692 18.7758 9.07031 18.7758 9.07031L18.7517 9.10698C18.7357 9.1312 18.7136 9.16718 18.6848 9.21423C18.656 9.26128 18.6292 9.3194 18.5985 9.3879C18.5677 9.45639 18.5362 9.53458 18.5047 9.62176C18.4907 9.66535 18.4753 9.71101 18.4606 9.76014C18.4458 9.80926 18.4338 9.85839 18.4204 9.90959C18.3956 10.0127 18.3735 10.1234 18.3575 10.2382C18.3494 10.2954 18.3427 10.3543 18.3374 10.4147L18.3361 10.5032C18.3361 10.5337 18.3347 10.5641 18.332 10.5946C18.3257 10.7195 18.3271 10.8448 18.3361 10.9696C18.346 11.0953 18.3643 11.2201 18.3909 11.3432C18.397 11.3737 18.4037 11.4041 18.4117 11.4338L18.4365 11.5238C18.4545 11.5826 18.4726 11.6407 18.494 11.6961C18.5347 11.8042 18.5842 11.9086 18.642 12.0081L18.6835 12.0773L18.7283 12.1417C18.7566 12.1826 18.7869 12.2218 18.8193 12.2593C18.8483 12.2943 18.8794 12.3273 18.9124 12.3582L18.9572 12.4018L19.0028 12.4392C19.053 12.4806 19.1066 12.5176 19.1627 12.5499C19.1984 12.5709 19.2356 12.5892 19.2739 12.6045L19.3134 12.6211L19.2899 12.5838C19.2752 12.5589 19.2504 12.5271 19.223 12.4821C19.1955 12.4371 19.1641 12.3859 19.1333 12.3229L19.1085 12.2766L19.0851 12.2247C19.069 12.1901 19.0516 12.1555 19.0369 12.1147C19.0222 12.0739 19.0041 12.0365 18.9907 11.9936C18.9833 11.9728 18.976 11.9514 18.968 11.9299L18.9479 11.8608C18.9191 11.7708 18.897 11.6732 18.8736 11.5736C18.8642 11.5224 18.8542 11.4712 18.8441 11.4193L18.8341 11.3446C18.8287 11.3181 18.8247 11.2913 18.822 11.2643C18.806 11.1571 18.7959 11.0457 18.7859 10.935C18.7792 10.8485 18.7745 10.7627 18.7712 10.6762L18.7926 10.7281C18.7999 10.7454 18.808 10.7627 18.816 10.7793C18.8327 10.8125 18.8481 10.8485 18.8655 10.8769C18.8993 10.9377 18.9361 10.9966 18.976 11.0533C18.9954 11.0796 19.0141 11.1059 19.0336 11.1301C19.053 11.1543 19.0724 11.1778 19.0918 11.1993C19.1277 11.2391 19.1659 11.2765 19.2063 11.3114C19.2361 11.3395 19.2679 11.3654 19.3013 11.3889C19.3288 11.4096 19.3515 11.4242 19.3682 11.4338L19.393 11.4484C19.393 11.4484 19.393 11.438 19.393 11.4193C19.393 11.4006 19.3803 11.373 19.3749 11.3397Z" fill="#213346"/>
<path d="M22.7302 7.9616C22.7442 7.94361 22.7576 7.92562 22.7724 7.90902L22.8139 7.85574C22.8687 7.78655 22.927 7.71321 22.9812 7.63918C23.0354 7.56514 23.0923 7.49318 23.1486 7.42261L23.1887 7.36795C23.2014 7.34927 23.2155 7.33197 23.2289 7.31398C23.2563 7.27869 23.2831 7.24479 23.3079 7.20743C23.3614 7.13824 23.4096 7.06905 23.4585 6.99986C23.4826 6.96665 23.5053 6.93067 23.5254 6.9023C23.5455 6.87393 23.5696 6.83865 23.5924 6.80889L23.7062 6.63938C23.7396 6.5861 23.7684 6.53974 23.7932 6.501C23.8179 6.46225 23.8353 6.43181 23.8474 6.4069L23.8561 6.39029L23.8728 6.37853L24.0067 6.28305L24.0542 6.24707H23.996C23.9572 6.24707 23.9016 6.25122 23.8313 6.25883C23.761 6.26644 23.6747 6.27682 23.5776 6.29481C23.4806 6.3128 23.3721 6.3384 23.255 6.37092C23.1967 6.38891 23.1358 6.4069 23.0736 6.42835C23.0113 6.4498 22.9477 6.47401 22.8828 6.49754C22.7529 6.55012 22.615 6.61101 22.4812 6.68228C22.4142 6.71825 22.3473 6.75631 22.2804 6.79713L22.1779 6.8594L22.0769 6.92513C21.9398 7.01797 21.808 7.11869 21.6819 7.2268C21.5553 7.33659 21.4363 7.45543 21.3258 7.58244C21.2977 7.61288 21.2709 7.64471 21.2448 7.67723L21.1685 7.77479C21.1196 7.84398 21.0714 7.90763 21.0286 7.97613C20.9447 8.10781 20.8719 8.2467 20.8111 8.39127C20.7972 8.42587 20.7831 8.45977 20.7689 8.49298C20.7546 8.52619 20.7432 8.5601 20.7347 8.59469C20.713 8.65882 20.6949 8.7242 20.6805 8.7905C20.6659 8.85111 20.6547 8.91257 20.6471 8.97455C20.6471 9.00361 20.6397 9.03197 20.6357 9.05965C20.6317 9.08733 20.6357 9.11431 20.6317 9.1406C20.6264 9.23058 20.6286 9.32086 20.6383 9.41044C20.6441 9.4673 20.6535 9.52369 20.6665 9.57927L20.6799 9.63808L20.7013 9.58203C20.7167 9.54536 20.7314 9.49209 20.7588 9.42774C20.7863 9.36339 20.8157 9.28521 20.8586 9.2008L20.8894 9.13576L20.9262 9.06657C20.9508 9.0191 20.9775 8.97291 21.0065 8.92819C21.036 8.88045 21.0641 8.82994 21.0996 8.7815L21.1504 8.7054L21.206 8.62998C21.279 8.52689 21.366 8.42241 21.455 8.3207L21.5962 8.1664L21.6712 8.09306C21.6953 8.06677 21.7207 8.04117 21.7469 8.01626C21.8499 7.91455 21.9604 7.8163 22.0715 7.71805C22.1585 7.64333 22.2462 7.57068 22.3393 7.49872L22.2998 7.56445C22.287 7.5859 22.2757 7.60873 22.2643 7.63364C22.2415 7.67861 22.2188 7.7222 22.1974 7.76718C22.1589 7.8529 22.125 7.94066 22.0956 8.0301C22.0822 8.07369 22.0688 8.1152 22.0575 8.15603C22.0461 8.19685 22.038 8.23767 22.03 8.27642C22.0151 8.3472 22.0042 8.41882 21.9972 8.49091C21.9909 8.54694 21.9882 8.60333 21.9892 8.65973C21.9892 8.70678 21.9892 8.74483 21.9892 8.77043L21.9932 8.80987L22.0186 8.78496C22.0374 8.76767 22.0635 8.74207 22.0949 8.70955L22.204 8.59262L22.3379 8.44178C22.3614 8.4141 22.3854 8.38505 22.4109 8.35599C22.4363 8.32693 22.4611 8.29579 22.4872 8.26465C22.5374 8.201 22.5943 8.13734 22.6465 8.06815C22.6766 8.03148 22.7034 7.99689 22.7302 7.9616Z" fill="#213346"/>
<path d="M24.7815 34.656C24.3501 34.6558 23.9196 34.6186 23.4943 34.5446C23.463 34.54 23.433 34.5289 23.406 34.5121C23.379 34.4952 23.3556 34.4728 23.3372 34.4463C23.3187 34.4199 23.3056 34.3899 23.2987 34.358C23.2918 34.3262 23.2911 34.2933 23.2968 34.2612C23.3025 34.2291 23.3144 34.1986 23.3317 34.1713C23.3491 34.1441 23.3717 34.1208 23.398 34.1028C23.4243 34.0848 23.4539 34.0725 23.4849 34.0666C23.516 34.0607 23.5478 34.0614 23.5786 34.0686C23.5994 34.0686 25.6303 34.4456 26.5788 33.7454C26.6995 33.661 26.8016 33.5512 26.8783 33.4231C26.955 33.295 27.0046 33.1517 27.0239 33.0023C27.027 32.9697 27.0364 32.938 27.0516 32.9093C27.0668 32.8805 27.0875 32.8552 27.1124 32.835C27.1373 32.8147 27.166 32.7999 27.1966 32.7914C27.2273 32.7829 27.2593 32.781 27.2907 32.7857C27.3221 32.7904 27.3522 32.8016 27.3793 32.8187C27.4064 32.8358 27.4298 32.8584 27.4481 32.8851C27.4665 32.9118 27.4795 32.9421 27.4862 32.9742C27.4929 33.0062 27.4932 33.0394 27.4872 33.0715C27.4585 33.2853 27.3871 33.4905 27.2775 33.6742C27.1679 33.8579 27.0225 34.016 26.8506 34.1384C26.293 34.5515 25.4716 34.656 24.7815 34.656Z" fill="#213346"/>
<path opacity="0.5" d="M29.623 24.298C29.8182 24.298 29.9764 24.1345 29.9764 23.9327C29.9764 23.7309 29.8182 23.5674 29.623 23.5674C29.4278 23.5674 29.2695 23.7309 29.2695 23.9327C29.2695 24.1345 29.4278 24.298 29.623 24.298Z" fill="white"/>
<path d="M28.6312 25.7572C29.4782 25.7572 30.1648 25.0475 30.1648 24.1721C30.1648 23.2966 29.4782 22.5869 28.6312 22.5869C27.7842 22.5869 27.0977 23.2966 27.0977 24.1721C27.0977 25.0475 27.7842 25.7572 28.6312 25.7572Z" fill="#213346"/>
<path d="M29.315 23.8727C29.7845 23.8727 30.1651 23.4792 30.1651 22.994C30.1651 22.5087 29.7845 22.1152 29.315 22.1152C28.8455 22.1152 28.4648 22.5087 28.4648 22.994C28.4648 23.4792 28.8455 23.8727 29.315 23.8727Z" fill="#F9CDB7"/>
<path d="M32.2965 17.5549C32.3828 17.7189 32.3862 17.8905 32.3032 17.9369C32.2202 17.9832 32.0829 17.8884 31.9966 17.7238C31.9102 17.5591 31.9069 17.3882 31.9899 17.3418C32.0729 17.2955 32.2101 17.3903 32.2965 17.5549Z" fill="white"/>
<path d="M32.9461 19.0173C33.0759 19.2678 33.1141 19.5085 33.0311 19.5549C32.9481 19.6013 32.7747 19.4352 32.6448 19.184C32.515 18.9329 32.4762 18.6928 32.5598 18.6464C32.6435 18.6001 32.8155 18.7661 32.9461 19.0173Z" fill="white"/>
<path d="M32.2215 15.8795C31.451 16.1815 30.661 16.427 29.8572 16.6143C27.916 17.0745 26.0417 17.062 24.1005 16.6655C22.4157 16.3196 20.702 15.8436 18.9844 15.9619C19.1098 15.6713 19.2472 15.3883 19.3967 15.1129L20.6291 15.0859C21.3413 15.1703 22.0488 15.317 22.7564 15.4699C22.7805 15.481 22.8066 15.4921 22.8354 15.5038L22.9264 15.5336C22.9585 15.5419 22.9933 15.5502 23.0295 15.5578C23.0656 15.5654 23.1045 15.5703 23.1439 15.5737C23.1834 15.5772 23.2256 15.58 23.2678 15.58H23.2718C23.7692 15.6865 24.2665 15.7875 24.7659 15.865C24.9151 15.8879 25.0664 15.9086 25.2211 15.9259L25.1903 15.9439L25.2257 15.9522C25.2492 15.957 25.2833 15.9633 25.3262 15.9695C25.378 15.9777 25.4303 15.9831 25.4828 15.9854C25.5497 15.9889 25.6167 15.9889 25.6836 15.9854C25.7191 15.9854 25.7572 15.9819 25.7961 15.9785C27.6643 16.1113 29.8191 15.8782 31.7657 15.1904C31.9223 15.4125 32.0709 15.6422 32.2215 15.8795Z" fill="#E2A78D"/>
<path d="M15.4265 23.9018C15.3538 23.902 15.2835 23.8748 15.2287 23.8255C15.1739 23.7761 15.1383 23.7078 15.1286 23.6334C14.7075 20.5025 14.6533 17.8048 14.9633 15.3845C15.2103 13.4541 15.7826 12.291 16.7137 11.8295C16.79 11.7915 16.8663 11.7603 16.94 11.7292C17.073 11.6843 17.1976 11.6159 17.3081 11.5272C17.5397 11.3099 17.6428 10.9446 17.7559 10.5585C17.8226 10.3009 17.9122 10.0503 18.0237 9.80985C18.9387 7.96524 20.8672 6.44168 22.8212 6.01754C25.5195 5.42666 27.6274 6.88726 29.667 8.30081C30.6196 8.9602 31.6042 9.64241 32.623 10.088C34.2737 10.8103 35.8675 10.7467 36.9961 9.91225L37.707 9.38641L37.46 10.2534C37.3991 10.4674 37.3258 10.6774 37.2405 10.8823C36.6327 12.3346 35.1988 14.3204 31.8137 15.4966C29.6188 16.2577 26.9687 16.5102 24.7256 16.1636C24.1064 16.0681 23.4832 15.9339 22.8808 15.8038C21.3131 15.4662 19.8317 15.1472 18.2914 15.4115C18.2524 15.4181 18.2125 15.4168 18.174 15.4075C18.1354 15.3983 18.099 15.3813 18.0669 15.3575C18.0347 15.3337 18.0074 15.3036 17.9865 15.2688C17.9656 15.2341 17.9515 15.1955 17.945 15.1551C17.9386 15.1148 17.9399 15.0735 17.9488 15.0337C17.9578 14.9939 17.9743 14.9563 17.9973 14.923C18.0203 14.8898 18.0495 14.8615 18.0831 14.8399C18.1166 14.8183 18.154 14.8037 18.193 14.7971C19.8438 14.5141 21.4503 14.86 23.0039 15.1942C23.5977 15.3222 24.2122 15.4551 24.8146 15.5478C26.968 15.8806 29.5124 15.6412 31.6216 14.9064C33.3199 14.3155 35.5342 13.1351 36.5891 10.8498C35.3843 11.3784 33.9002 11.3175 32.3867 10.6554C31.3157 10.1862 30.3063 9.48743 29.3303 8.81144C27.3061 7.41103 25.3936 6.08673 22.9444 6.62295C21.1872 7.00765 19.3825 8.43435 18.5565 10.0915C18.4647 10.2978 18.391 10.5122 18.3363 10.7322C18.2125 11.1639 18.0719 11.6524 17.7151 11.9866C17.5527 12.1263 17.3669 12.2342 17.1669 12.3048C17.0999 12.3325 17.0363 12.3595 16.9774 12.3886C16.2445 12.7539 15.7812 13.7606 15.563 15.4662C15.2571 17.8297 15.312 20.4734 15.7257 23.5483C15.7365 23.63 15.7156 23.7129 15.6674 23.7787C15.6192 23.8444 15.5477 23.8877 15.4686 23.899C15.4547 23.901 15.4406 23.902 15.4265 23.9018Z" fill="#213346"/>
<path d="M35.1754 23.588C35.0958 23.5883 35.0194 23.5558 34.963 23.4978C34.9065 23.4398 34.8745 23.361 34.8742 23.2788C34.8541 20.4475 31.5547 15.4188 31.5213 15.3683C31.4989 15.3345 31.4832 15.2964 31.4751 15.2564C31.467 15.2163 31.4666 15.175 31.474 15.1348C31.4813 15.0945 31.4962 15.0562 31.5179 15.022C31.5395 14.9877 31.5676 14.9582 31.6002 14.9351C31.633 14.9121 31.6697 14.8958 31.7085 14.8875C31.7472 14.8791 31.7872 14.8787 31.8261 14.8863C31.865 14.8938 31.9021 14.9093 31.9353 14.9317C31.9684 14.9541 31.9969 14.983 32.0193 15.0168C32.1592 15.2292 35.4552 20.2552 35.4767 23.2746C35.477 23.3572 35.4457 23.4365 35.3896 23.4952C35.3336 23.5539 35.2573 23.5874 35.1774 23.588H35.1754Z" fill="#213346"/>
<path d="M34.0996 22.4313C34.1411 22.7524 34.1634 23.076 34.1665 23.3999C34.1665 23.5487 34.1665 23.6905 34.1565 23.8227C34.1464 23.9548 34.1391 24.078 34.1264 24.1901C34.0755 24.6377 33.9925 24.9055 33.9496 24.8993C33.8492 24.8861 33.9403 23.7971 33.7609 22.4776C33.5929 21.1589 33.222 20.1348 33.3157 20.0947C33.3566 20.0767 33.5045 20.312 33.6698 20.7292C33.7113 20.8337 33.7542 20.9485 33.7943 21.0751C33.8345 21.2018 33.874 21.3367 33.9135 21.4799C33.9944 21.7928 34.0565 22.1105 34.0996 22.4313Z" fill="white"/>
<path d="M21.9359 25.7572C22.7829 25.7572 23.4695 25.0475 23.4695 24.1721C23.4695 23.2966 22.7829 22.5869 21.9359 22.5869C21.0889 22.5869 20.4023 23.2966 20.4023 24.1721C20.4023 25.0475 21.0889 25.7572 21.9359 25.7572Z" fill="#213346"/>
<path d="M22.6197 23.8727C23.0892 23.8727 23.4698 23.4792 23.4698 22.994C23.4698 22.5087 23.0892 22.1152 22.6197 22.1152C22.1501 22.1152 21.7695 22.5087 21.7695 22.994C21.7695 23.4792 22.1501 23.8727 22.6197 23.8727Z" fill="#F9CDB7"/>
<path d="M21.3222 25.1291C21.5174 25.1291 21.6756 24.9655 21.6756 24.7638C21.6756 24.562 21.5174 24.3984 21.3222 24.3984C21.127 24.3984 20.9688 24.562 20.9688 24.7638C20.9688 24.9655 21.127 25.1291 21.3222 25.1291Z" fill="white"/>
<path d="M28.2128 25.1291C28.408 25.1291 28.5662 24.9655 28.5662 24.7638C28.5662 24.562 28.408 24.3984 28.2128 24.3984C28.0176 24.3984 27.8594 24.562 27.8594 24.7638C27.8594 24.9655 28.0176 25.1291 28.2128 25.1291Z" fill="white"/>
</g>
<defs>
<linearGradient id="paint0_linear_37_6371" x1="25.3846" y1="1.46976e-08" x2="25.0152" y2="49.0001" gradientUnits="userSpaceOnUse">
<stop stop-color="#213346"/>
<stop offset="1" stop-color="white" stop-opacity="0"/>
</linearGradient>
<linearGradient id="paint1_linear_37_6371" x1="25.3846" y1="46.3615" x2="25.3846" y2="-8.29231" gradientUnits="userSpaceOnUse">
<stop stop-color="#FFCB65"/>
<stop offset="1" stop-color="#FFCB65" stop-opacity="0"/>
</linearGradient>
</defs>
</svg>
